<svg xmlns="http://www.w3.org/2000/svg" xml:space="preserve" width="800" height="800" viewBox="0 0 587.52 587.52"><path d="M139.231 335.581a9.18 9.18 0 0 0-9.18-9.18H83.129a9.18 9.18 0 0 0-9.18 9.18V382.5a9.18 9.18 0 0 0 9.18 9.18h46.919a9.18 9.18 0 0 0 9.18-9.18v-46.919h.003zM73.949 270.302a9.179 9.179 0 0 0-9.18-9.18H17.851a9.179 9.179 0 0 0-9.18 9.18v46.918a9.18 9.18 0 0 0 9.18 9.181H64.77a9.18 9.18 0 0 0 9.18-9.181v-46.918zM83.129 195.84a9.18 9.18 0 0 0-9.18 9.18v46.919a9.18 9.18 0 0 0 9.18 9.18h46.919a9.18 9.18 0 0 0 9.18-9.18V205.02a9.18 9.18 0 0 0-9.18-9.18H83.129zM148.412 130.561a9.179 9.179 0 0 0-9.18 9.18v46.919a9.18 9.18 0 0 0 9.18 9.18h46.919a9.18 9.18 0 0 0 9.18-9.18v-46.919a9.179 9.179 0 0 0-9.18-9.18h-46.919zM269.79 121.381V74.462a9.18 9.18 0 0 0-9.18-9.18h-46.92a9.18 9.18 0 0 0-9.18 9.18v46.919a9.18 9.18 0 0 0 9.18 9.18h46.919a9.18 9.18 0 0 0 9.181-9.18zM335.072 56.102V9.18A9.18 9.18 0 0 0 325.891 0h-46.922a9.18 9.18 0 0 0-9.18 9.18v46.919a9.18 9.18 0 0 0 9.18 9.18h46.919c5.07.003 9.184-4.11 9.184-9.177zM204.51 400.86a9.18 9.18 0 0 0-9.18-9.181h-46.919a9.18 9.18 0 0 0-9.18 9.181v46.919a9.18 9.18 0 0 0 9.18 9.18h46.919a9.18 9.18 0 0 0 9.18-9.18V400.86zM269.79 466.142a9.18 9.18 0 0 0-9.18-9.18h-46.92a9.18 9.18 0 0 0-9.18 9.18v46.919a9.18 9.18 0 0 0 9.18 9.181h46.919a9.18 9.18 0 0 0 9.18-9.181v-46.919zM325.891 522.241h-46.922a9.18 9.18 0 0 0-9.18 9.18v46.919a9.18 9.18 0 0 0 9.18 9.18h46.919a9.18 9.18 0 0 0 9.181-9.18v-46.919c.003-5.07-4.111-9.18-9.178-9.18zM383.009 335.581a9.18 9.18 0 0 0-9.18-9.18H326.91a9.18 9.18 0 0 0-9.181 9.18V382.5a9.18 9.18 0 0 0 9.181 9.18h46.919a9.18 9.18 0 0 0 9.18-9.18v-46.919zM261.631 326.401h46.919a9.18 9.18 0 0 0 9.18-9.181v-46.918a9.179 9.179 0 0 0-9.18-9.18h-46.919a9.18 9.18 0 0 0-9.18 9.18v46.918c.001 5.071 4.11 9.181 9.18 9.181zM326.911 261.122h46.919a9.18 9.18 0 0 0 9.18-9.18V205.02a9.18 9.18 0 0 0-9.18-9.18h-46.919a9.18 9.18 0 0 0-9.181 9.18v46.919c0 5.07 4.11 9.183 9.181 9.183zM392.189 130.561a9.18 9.18 0 0 0-9.18 9.18v46.919a9.18 9.18 0 0 0 9.18 9.18h46.92a9.18 9.18 0 0 0 9.18-9.18v-46.919a9.179 9.179 0 0 0-9.18-9.18h-46.92zM457.471 65.282a9.18 9.18 0 0 0-9.18 9.18v46.919a9.179 9.179 0 0 0 9.18 9.18h46.919a9.18 9.18 0 0 0 9.181-9.18V74.462a9.18 9.18 0 0 0-9.181-9.18h-46.919zM569.669 0H522.75a9.18 9.18 0 0 0-9.18 9.18v46.919a9.18 9.18 0 0 0 9.18 9.18h46.919a9.18 9.18 0 0 0 9.18-9.18V9.18a9.179 9.179 0 0 0-9.18-9.18zM448.292 400.86a9.18 9.18 0 0 0-9.18-9.181h-46.919a9.181 9.181 0 0 0-9.181 9.181v46.919a9.18 9.18 0 0 0 9.181 9.18h46.919a9.18 9.18 0 0 0 9.18-9.18V400.86zM513.571 466.142a9.18 9.18 0 0 0-9.181-9.18h-46.919a9.18 9.18 0 0 0-9.18 9.18v46.919a9.18 9.18 0 0 0 9.18 9.181h46.919a9.18 9.18 0 0 0 9.181-9.181v-46.919zM569.669 522.241H522.75a9.18 9.18 0 0 0-9.18 9.18v46.919a9.18 9.18 0 0 0 9.18 9.18h46.919a9.18 9.18 0 0 0 9.18-9.18v-46.919a9.18 9.18 0 0 0-9.18-9.18z"/></svg>