<svg xmlns="http://www.w3.org/2000/svg" xml:space="preserve" style="enable-background:new 0 0 128 128" viewBox="0 0 128 128"><path d="M92.243 44.495a24.484 24.484 0 0 0-1.123-.026H70.144V40H57.856v4.469H36.889C24.803 44.469 15 54.211 15 66.239 15 78.259 24.803 88 36.889 88a21.9 21.9 0 0 0 16.605-7.577h21.02A21.904 21.904 0 0 0 91.12 88C103.205 88 113 78.259 113 66.239c0-11.653-9.198-21.159-20.757-21.744zM45.508 69.748h-5.512v5.473h-7.627v-5.473h-5.503v-7.585h5.503V56.69h7.627v5.473h5.512v7.585zm17.044-16.236c0 .672-.553 1.231-1.238 1.231h-5.731a1.245 1.245 0 0 1-1.238-1.231v-1.03c0-.672.562-1.231 1.238-1.231h5.731c.685 0 1.238.559 1.238 1.231v1.03zm11.102 0c0 .672-.562 1.231-1.237 1.231h-5.731a1.238 1.238 0 0 1-1.237-1.231v-1.03c0-.672.553-1.231 1.237-1.231h5.731c.676 0 1.237.559 1.237 1.231v1.03zm8.145 16.236c-2.106 0-3.818-1.702-3.818-3.797 0-2.086 1.711-3.788 3.818-3.788 2.106 0 3.809 1.702 3.809 3.788a3.803 3.803 0 0 1-3.809 3.797zm9.321 9.27c-2.106 0-3.818-1.702-3.818-3.797s1.711-3.788 3.818-3.788a3.795 3.795 0 0 1 3.809 3.788 3.803 3.803 0 0 1-3.809 3.797zm0-18.54c-2.106 0-3.818-1.693-3.818-3.788s1.711-3.797 3.818-3.797c2.106 0 3.809 1.702 3.809 3.797s-1.703 3.788-3.809 3.788zm9.312 9.27a3.808 3.808 0 0 1-3.809-3.797c0-2.086 1.711-3.788 3.809-3.788 2.106 0 3.818 1.702 3.818 3.788 0 2.095-1.712 3.797-3.818 3.797z"/></svg>