<svg xmlns="http://www.w3.org/2000/svg" xml:space="preserve" style="enable-background:new 0 0 512 512" viewBox="0 0 512 512"><path d="M-1.6 148.8h121.4L302.4 0v512L119.8 363.2H-1.6V148.8zm372.7-24.2c35.9 35.9 54.2 79.5 54.9 130.9 0 49.3-18.3 91.5-54.9 126.7l-36.9-38c25.3-25.3 38-55.2 38-89.7 0-35.2-12.7-65.8-38-91.8l36.9-38.1zm63.3-62.3c52.8 52.8 79.2 116.5 79.2 191.1S487.2 392 434.4 445.5l-39.1-39.1c42.2-41.5 63.3-92.4 63.3-152.5 0-60.2-21.1-111.4-63.3-153.6l39.1-38z" style="fill:#00cc00"/></svg>