<svg xmlns="http://www.w3.org/2000/svg" xml:space="preserve" style="enable-background:new 0 0 512 512" viewBox="0 0 512 512"><path d="M332.8 57.66c0-27.61-32.63-42.26-53.26-23.91L164.56 135.97a19.208 19.208 0 0 1-12.76 4.85H57.6c-31.81 0-57.6 25.79-57.6 57.6v115.15c0 31.81 25.79 57.6 57.6 57.6h94.2c4.7 0 9.24 1.73 12.76 4.85l114.98 102.24c20.64 18.35 53.26 3.7 53.26-23.91V57.66zm31.23 127.22c7.5-7.5 19.65-7.5 27.15 0l44.03 44.02 44.02-44.02c7.5-7.5 19.65-7.5 27.15 0s7.5 19.65 0 27.15l-44.02 44.02 44.02 44.02c7.5 7.5 7.5 19.65 0 27.15s-19.65 7.5-27.15 0l-44.02-44.03-44.03 44.03c-7.5 7.5-19.65 7.5-27.15 0s-7.5-19.65 0-27.15l44.02-44.02-44.02-44.02c-7.5-7.5-7.5-19.65 0-27.15z" style="fill:#00cc00"/></svg>